<svg width="20" height="20" viewBox="0 0 20 20" fill="none" xmlns="http://www.w3.org/2000/svg">
<path fill-rule="evenodd" clip-rule="evenodd" d="M9.99965 5.83329C9.54132 5.83329 9.16632 6.20829 9.16632 6.66663V9.16663H6.66632C6.20799 9.16663 5.83299 9.54163 5.83299 9.99996C5.83299 10.4583 6.20799 10.8333 6.66632 10.8333H9.16632V13.3333C9.16632 13.7916 9.54132 14.1666 9.99965 14.1666C10.458 14.1666 10.833 13.7916 10.833 13.3333V10.8333H13.333C13.7913 10.8333 14.1663 10.4583 14.1663 9.99996C14.1663 9.54163 13.7913 9.16663 13.333 9.16663H10.833V6.66663C10.833 6.20829 10.458 5.83329 9.99965 5.83329ZM10.0006 1.66663C5.40057 1.66663 1.66724 5.39996 1.66724 9.99996C1.66724 14.6 5.40057 18.3333 10.0006 18.3333C14.6006 18.3333 18.3339 14.6 18.3339 9.99996C18.3339 5.39996 14.6006 1.66663 10.0006 1.66663ZM9.99965 16.6666C6.32465 16.6666 3.33299 13.675 3.33299 9.99996C3.33299 6.32496 6.32465 3.33329 9.99965 3.33329C13.6747 3.33329 16.6663 6.32496 16.6663 9.99996C16.6663 13.675 13.6747 16.6666 9.99965 16.6666Z" fill="#45A35A"/>
</svg>
