<svg width="20" height="20" viewBox="0 0 20 20" fill="none" xmlns="http://www.w3.org/2000/svg">
<path fill-rule="evenodd" clip-rule="evenodd" d="M9.9999 5.83329C9.54156 5.83329 9.16656 6.20829 9.16656 6.66663V9.16663H6.66656C6.20823 9.16663 5.83323 9.54163 5.83323 9.99996C5.83323 10.4583 6.20823 10.8333 6.66656 10.8333H9.16656V13.3333C9.16656 13.7916 9.54156 14.1666 9.9999 14.1666C10.4582 14.1666 10.8332 13.7916 10.8332 13.3333V10.8333H13.3332C13.7916 10.8333 14.1666 10.4583 14.1666 9.99996C14.1666 9.54163 13.7916 9.16663 13.3332 9.16663H10.8332V6.66663C10.8332 6.20829 10.4582 5.83329 9.9999 5.83329ZM10.0008 1.66663C5.40081 1.66663 1.66748 5.39996 1.66748 9.99996C1.66748 14.6 5.40081 18.3333 10.0008 18.3333C14.6008 18.3333 18.3341 14.6 18.3341 9.99996C18.3341 5.39996 14.6008 1.66663 10.0008 1.66663ZM9.9999 16.6666C6.3249 16.6666 3.33323 13.675 3.33323 9.99996C3.33323 6.32496 6.3249 3.33329 9.9999 3.33329C13.6749 3.33329 16.6666 6.32496 16.6666 9.99996C16.6666 13.675 13.6749 16.6666 9.9999 16.6666Z" fill="white"/>
</svg>
