<svg width="28" height="22" viewBox="0 0 28 22" fill="none" xmlns="http://www.w3.org/2000/svg">
<path d="M25.5558 8.25H20.43C20.9778 9.52145 20.7373 11.0516 19.6961 12.088L13.814 17.9429V19.9375C13.814 21.0766 14.7416 22 15.886 22H25.5558C26.7002 22 27.6279 21.0766 27.6279 19.9375V10.3125C27.6279 9.1734 26.7002 8.25 25.5558 8.25ZM20.7209 16.1562C20.1489 16.1562 19.6849 15.6943 19.6849 15.125C19.6849 14.5552 20.1489 14.0938 20.7209 14.0938C21.2929 14.0938 21.757 14.5552 21.757 15.125C21.757 15.6943 21.2929 16.1562 20.7209 16.1562ZM18.7192 8.13398L11.1677 0.617461C10.3406 -0.20582 8.99936 -0.20582 8.17225 0.617461L0.620333 8.13398C-0.206778 8.95727 -0.206778 10.2923 0.620333 11.1156L8.17182 18.6325C8.99893 19.4558 10.3402 19.4558 11.1673 18.6325L18.7192 11.116C19.5463 10.2923 19.5463 8.95727 18.7192 8.13398ZM4.14419 10.6562C3.5722 10.6562 3.10814 10.1943 3.10814 9.625C3.10814 9.05523 3.5722 8.59375 4.14419 8.59375C4.71617 8.59375 5.18023 9.05523 5.18023 9.625C5.18023 10.1943 4.71617 10.6562 4.14419 10.6562ZM9.66977 16.1562C9.09778 16.1562 8.63372 15.6943 8.63372 15.125C8.63372 14.5552 9.09778 14.0938 9.66977 14.0938C10.2418 14.0938 10.7058 14.5552 10.7058 15.125C10.7058 15.6943 10.2418 16.1562 9.66977 16.1562ZM9.66977 10.6562C9.09778 10.6562 8.63372 10.1943 8.63372 9.625C8.63372 9.05523 9.09778 8.59375 9.66977 8.59375C10.2418 8.59375 10.7058 9.05523 10.7058 9.625C10.7058 10.1943 10.2418 10.6562 9.66977 10.6562ZM9.66977 5.15625C9.09778 5.15625 8.63372 4.69434 8.63372 4.125C8.63372 3.55523 9.09778 3.09375 9.66977 3.09375C10.2418 3.09375 10.7058 3.55523 10.7058 4.125C10.7058 4.69434 10.2418 5.15625 9.66977 5.15625ZM15.1953 10.6562C14.6234 10.6562 14.1593 10.1943 14.1593 9.625C14.1593 9.05523 14.6234 8.59375 15.1953 8.59375C15.7673 8.59375 16.2314 9.05523 16.2314 9.625C16.2314 10.1943 15.7673 10.6562 15.1953 10.6562Z" fill="#808FAC"/>
</svg>
