<svg width="26" height="26" viewBox="0 0 26 26" fill="none" xmlns="http://www.w3.org/2000/svg">
<path d="M21.6663 6.49998C21.6663 6.49998 19.1823 4.5554 16.2497 4.33331L15.9853 4.86252C18.6363 5.51198 19.8528 6.4404 21.1247 7.58331C18.9325 6.46423 16.7697 5.41665 12.9997 5.41665C9.22967 5.41665 7.0668 6.46423 4.87467 7.58331C6.14651 6.4404 7.59384 5.40798 10.014 4.86252L9.74967 4.33331C6.67301 4.6231 4.33301 6.49998 4.33301 6.49998C4.33301 6.49998 1.55913 10.5224 1.08301 18.4166C3.87801 21.6412 8.12467 21.6666 8.12467 21.6666L9.01301 20.4836C7.50501 19.9593 5.80417 19.0239 4.33301 17.3333C6.08692 18.6604 8.73405 20.0416 12.9997 20.0416C17.2653 20.0416 19.9124 18.6604 21.6663 17.3333C20.1957 19.0239 18.4949 19.9593 16.9863 20.4836L17.8747 21.6666C17.8747 21.6666 22.1213 21.6412 24.9163 18.4166C24.4402 10.5224 21.6663 6.49998 21.6663 6.49998ZM9.47884 16.25C8.43126 16.25 7.58301 15.2804 7.58301 14.0833C7.58301 12.8862 8.43126 11.9166 9.47884 11.9166C10.5264 11.9166 11.3747 12.8862 11.3747 14.0833C11.3747 15.2804 10.5264 16.25 9.47884 16.25ZM16.5205 16.25C15.4729 16.25 14.6247 15.2804 14.6247 14.0833C14.6247 12.8862 15.4729 11.9166 16.5205 11.9166C17.5681 11.9166 18.4163 12.8862 18.4163 14.0833C18.4163 15.2804 17.5681 16.25 16.5205 16.25Z" fill="#5B6780"/>
</svg>
