<svg width="28" height="28" viewBox="0 0 28 28" fill="none" xmlns="http://www.w3.org/2000/svg">
<path d="M14 23.8984C14.453 23.8984 14.8203 23.5312 14.8203 23.0781C14.8203 22.6251 14.453 22.2578 14 22.2578C13.547 22.2578 13.1797 22.6251 13.1797 23.0781C13.1797 23.5312 13.547 23.8984 14 23.8984Z" fill="#E7DFDE"/>
<path d="M14 18.1562C11.2859 18.1562 9.07812 20.364 9.07812 23.0781C9.07812 25.7922 11.2859 28 14 28C16.7141 28 18.9219 25.7922 18.9219 23.0781C18.9219 20.364 16.7141 18.1562 14 18.1562ZM14 25.5391C12.643 25.5391 11.5391 24.4351 11.5391 23.0781C11.5391 21.7211 12.643 20.6172 14 20.6172C15.357 20.6172 16.4609 21.7211 16.4609 23.0781C16.4609 24.4351 15.357 25.5391 14 25.5391Z" fill="#E7DFDE"/>
<path d="M21.7207 25.1874L25.485 19.8121L23.2672 18.259C22.4935 19.6543 21.5474 20.919 20.4489 21.9483C20.5133 22.317 20.5631 22.6912 20.5631 23.0781C20.5631 23.4934 20.5145 23.8967 20.4404 24.2908L21.7207 25.1874Z" fill="#E7DFDE"/>
<path d="M7.56005 24.2905C7.48595 23.8965 7.4375 23.4933 7.4375 23.0781C7.4375 22.6912 7.48727 22.317 7.55174 21.9483C6.45307 20.9189 5.50676 19.6539 4.73304 18.2583L2.51562 19.8105L6.27911 25.1874L7.56005 24.2905Z" fill="#E7DFDE"/>
<path d="M18.9219 9.07812C17.9053 9.07812 16.4609 9.92649 16.4609 10.7188C16.4609 11.511 17.9053 12.3594 18.9219 12.3594C19.3064 12.3594 19.7422 12.3594 19.7422 10.7188C19.7422 9.07812 19.3064 9.07812 18.9219 9.07812Z" fill="#E7DFDE"/>
<path d="M23.8438 9.89844C23.8438 3.9183 19.9801 0 14 0C8.01987 0 4.15625 3.9183 4.15625 9.89844C4.15625 13.5361 5.70784 17.5715 8.13876 20.1863C9.21222 18.0211 11.424 16.5156 14 16.5156C16.576 16.5156 18.7878 18.0211 19.8612 20.1863C22.2922 17.5715 23.8438 13.5361 23.8438 9.89844ZM9.07812 14C7.44548 14 6.61719 12.8961 6.61719 10.7187C6.61719 8.54142 7.44548 7.4375 9.07812 7.4375C10.7108 7.4375 13.1797 8.7465 13.1797 10.7187C13.1797 12.691 10.7108 14 9.07812 14ZM14.8203 10.7187C14.8203 8.7465 17.2892 7.4375 18.9219 7.4375C20.5545 7.4375 21.3828 8.54142 21.3828 10.7187C21.3828 12.8961 20.5545 14 18.9219 14C17.2892 14 14.8203 12.691 14.8203 10.7187Z" fill="#E7DFDE"/>
<path d="M9.07812 9.07812C8.69362 9.07812 8.25781 9.07812 8.25781 10.7188C8.25781 12.3594 8.69362 12.3594 9.07812 12.3594C10.0947 12.3594 11.5391 11.511 11.5391 10.7188C11.5391 9.92649 10.0947 9.07812 9.07812 9.07812Z" fill="#E7DFDE"/>
</svg>
