<svg width="18" height="18" viewBox="0 0 18 18" fill="none" xmlns="http://www.w3.org/2000/svg">
<path fill-rule="evenodd" clip-rule="evenodd" d="M16 0H2C0.9 0 0 0.9 0 2V16C0 17.1 0.9 18 2 18H16C17.1 18 18 17.1 18 16V2C18 0.9 17.1 0 16 0ZM7.70976 13.29C7.31976 13.68 6.68976 13.68 6.29976 13.29L2.70976 9.7C2.31976 9.31 2.31976 8.68 2.70976 8.29C3.09976 7.9 3.72976 7.9 4.11976 8.29L6.99976 11.17L13.8798 4.29C14.2698 3.9 14.8998 3.9 15.2898 4.29C15.6798 4.68 15.6798 5.31 15.2898 5.7L7.70976 13.29Z" fill="#E93737"/>
</svg>
