<svg width="18" height="18" viewBox="0 0 18 18" fill="none" xmlns="http://www.w3.org/2000/svg">
<path fill-rule="evenodd" clip-rule="evenodd" d="M8.99941 4.83334C8.54107 4.83334 8.16607 5.20834 8.16607 5.66667V8.16667H5.66607C5.20774 8.16667 4.83274 8.54167 4.83274 9C4.83274 9.45834 5.20774 9.83334 5.66607 9.83334H8.16607V12.3333C8.16607 12.7917 8.54107 13.1667 8.99941 13.1667C9.45774 13.1667 9.83274 12.7917 9.83274 12.3333V9.83334H12.3327C12.7911 9.83334 13.1661 9.45834 13.1661 9C13.1661 8.54167 12.7911 8.16667 12.3327 8.16667H9.83274V5.66667C9.83274 5.20834 9.45774 4.83334 8.99941 4.83334ZM9.00033 0.666672C4.40033 0.666672 0.666992 4.40001 0.666992 9C0.666992 13.6 4.40033 17.3333 9.00033 17.3333C13.6003 17.3333 17.3337 13.6 17.3337 9C17.3337 4.40001 13.6003 0.666672 9.00033 0.666672ZM8.99941 15.6667C5.32441 15.6667 2.33274 12.675 2.33274 9C2.33274 5.325 5.32441 2.33334 8.99941 2.33334C12.6744 2.33334 15.6661 5.325 15.6661 9C15.6661 12.675 12.6744 15.6667 8.99941 15.6667Z" fill="#5B677F"/>
</svg>
