<svg width="322" height="213" viewBox="0 0 322 213" fill="none" xmlns="http://www.w3.org/2000/svg">
<rect width="322" height="213" rx="5" fill="#202435"/>
<path d="M176.995 74.8125V27.2812C176.995 24.3634 175.205 22 172.995 22H164.995C162.785 22 160.995 24.3634 160.995 27.2812V75.7796C162.25 75.1921 163.58 74.8125 164.987 74.8125H176.995ZM208.995 106.497C208.993 94.8317 201.83 85.375 192.997 85.375H164.963C162.768 85.375 160.987 87.7087 160.987 90.6067V90.7916C160.987 99.4627 166.312 106.5 172.88 106.5H181.695C184.115 106.5 184.995 107.682 184.995 109.141V114.488C184.995 115.904 184.098 117.056 183.025 117.129C171.895 117.881 166.985 125.285 159.013 141.076L157.435 144.202C157.289 144.49 157.102 144.738 156.884 144.931C156.666 145.124 156.421 145.258 156.164 145.326C155.906 145.395 155.641 145.395 155.384 145.328C155.126 145.26 154.881 145.127 154.662 144.934L151.335 142.003C151.116 141.811 150.929 141.564 150.782 141.276C150.636 140.988 150.534 140.665 150.483 140.325C150.431 139.985 150.431 139.635 150.482 139.295C150.533 138.955 150.634 138.631 150.78 138.343L152.357 135.217C156.29 127.427 159.908 120.938 164.185 116.046C159.868 114.227 156.335 110.065 154.467 104.675C152.82 105.8 150.978 106.497 149 106.497H141C137.915 106.497 135.128 104.909 133 102.377C130.87 104.912 128.083 106.5 125 106.5H117C115.59 106.5 114.258 106.12 113 105.526V131.249C113 142.455 116.37 153.199 122.373 161.125L128.998 169.875V191H192.993V169.888L201.97 158.032C206.472 152.086 209.001 144.023 209 135.616L208.995 106.497ZM200.993 76.76V37.8438C200.993 34.9259 199.202 32.5625 196.993 32.5625H188.993C186.783 32.5625 184.993 34.9259 184.993 37.8438V74.8125H192.993C195.812 74.8125 198.478 75.575 200.993 76.76ZM117 95.9375H125C127.21 95.9375 129 93.5741 129 90.6562V48.4062C129 45.4884 127.21 43.125 125 43.125H117C114.79 43.125 113 45.4884 113 48.4062V90.6562C113 93.5741 114.79 95.9375 117 95.9375ZM140.997 95.9375H148.998C151.208 95.9375 152.998 93.5741 152.998 90.6562V37.8438C152.998 34.9259 151.208 32.5625 148.998 32.5625H140.997C138.787 32.5625 136.997 34.9259 136.997 37.8438V90.6562C136.997 93.5741 138.787 95.9375 140.997 95.9375Z" fill="#6C768D" fill-opacity="0.06"/>
</svg>
