<svg width="830" height="80" viewBox="0 0 830 80" fill="none" xmlns="http://www.w3.org/2000/svg">
<path fill-rule="evenodd" clip-rule="evenodd" d="M5 0C2.23858 0 0 2.23858 0 5V75C0 77.7614 2.2386 80 5.00002 80H825C827.761 80 830 77.7614 830 75V5C830 2.23858 827.761 0 825 0H5ZM40.84 61H76.36V52.04H52.36V42.76H71.24V33.8H52.36V25.16H76.36V16.2H40.84V61ZM122.745 16.2H89.145L87.545 42.44C87.4597 43.8907 87.097 45.512 86.457 47.304C85.8597 49.0533 84.9423 50.632 83.705 52.04H79.545V69.32H90.425L91.065 61H116.025L116.665 69.32H127.545V52.04H122.745V16.2ZM111.225 25.16V52.04H94.905C95.5023 51.144 96.0357 50.1413 96.505 49.032C97.657 46.3867 98.297 43.7627 98.425 41.16L99.385 25.16H111.225ZM161.482 61H173.003V16.2H160.842L145.482 43.72V16.2H133.962V61H146.122L161.482 33.48V61ZM209.512 61H221.033V16.2H209.512V33.8H193.512V16.2H181.992V61H193.512V42.76H209.512V61ZM240.902 61.64C247.174 61.64 255.068 61.2133 264.582 60.36V51.72C261.809 51.8907 259.484 52.04 257.607 52.168C255.772 52.296 254.257 52.3813 253.062 52.424L249.606 52.552C248.454 52.5947 247.345 52.6373 246.279 52.68H243.335C242.438 52.68 241.692 52.4027 241.094 51.848C240.54 51.2507 240.262 50.4613 240.262 49.48V29C240.262 26.44 241.542 25.16 244.102 25.16H264.582V16.2H241.542C237.062 16.2 233.798 17.224 231.75 19.272C229.745 21.2773 228.742 24.52 228.742 29V49.48C228.742 53.6613 229.724 56.7333 231.686 58.696C233.649 60.6587 236.721 61.64 240.902 61.64ZM281.23 61H292.75V25.16H306.19V16.2H267.79V25.16H281.23V61ZM337.557 16.2H311.957V61H339.477C343.659 61 346.731 60.0187 348.693 58.056C350.656 56.0933 351.637 53.0213 351.637 48.84C351.637 47.0907 351.424 45.5547 350.997 44.232C349.76 40.5627 347.413 38.2587 343.957 37.32C345.579 36.68 346.944 35.5707 348.053 33.992C349.163 32.3707 349.717 30.28 349.717 27.72C349.717 23.8373 348.736 20.9573 346.773 19.08C344.811 17.16 341.739 16.2 337.557 16.2ZM336.277 43.08C338.837 43.08 340.117 44.36 340.117 46.92V48.2C340.117 50.76 338.837 52.04 336.277 52.04H323.477V43.08H336.277ZM334.357 25.16C336.917 25.16 338.198 26.44 338.198 29V30.28C338.198 32.84 336.917 34.12 334.357 34.12H323.477V25.16H334.357ZM358.675 61H394.195V52.04H370.195V42.76H389.075V33.8H370.195V25.16H394.195V16.2H358.675V61ZM428.1 61H439.62V16.2H428.1V33.8H412.1V16.2H400.58V61H412.1V42.76H428.1V61ZM476.13 61H487.65V16.2H476.13V33.8H460.13V16.2H448.61V61H460.13V42.76H476.13V61ZM492.16 61H504.64L507.52 53H523.52L526.4 61H538.88L521.92 16.2H509.12L492.16 61ZM515.52 29.64L520.64 44.68H510.4L515.52 29.64ZM570.237 61H581.758V16.2H554.878C550.397 16.2 547.133 17.224 545.086 19.272C543.08 21.2773 542.078 24.52 542.078 29V33.48C542.078 37.0213 542.675 39.7733 543.87 41.736C545.064 43.6987 547.027 45 549.758 45.64L541.438 61H553.597L561.597 46.28H570.237V61ZM557.438 37.32C554.878 37.32 553.597 36.04 553.597 33.48V29C553.597 26.44 554.878 25.16 557.438 25.16H570.237V37.32H557.438ZM611.168 16.2V61H643.487L644.128 69.32H655.008V52.04H650.208V16.2H638.688V52.04H622.688V16.2H611.168ZM661.385 61H696.905V52.04H672.905V42.76H691.785V33.8H672.905V25.16H696.905V16.2H661.385V61ZM713.786 59.016C715.535 57.224 716.517 54.792 716.73 51.72L718.33 25.16H731.77V61H743.29V16.2H707.77L705.85 49.48C705.807 50.2907 705.509 50.9733 704.954 51.528C704.442 52.0827 703.781 52.36 702.97 52.36H700.09V61C702.351 61.4267 704.762 61.64 707.322 61.64C709.882 61.64 712.037 60.7653 713.786 59.016ZM779.137 31.56H763.777V16.2H752.258V61H779.137C783.617 61 786.86 59.9973 788.865 57.992C790.913 55.944 791.938 52.68 791.938 48.2V44.36C791.938 39.88 790.913 36.6373 788.865 34.632C786.86 32.584 783.617 31.56 779.137 31.56ZM776.577 40.52C779.137 40.52 780.417 41.8 780.417 44.36V48.2C780.417 50.76 779.137 52.04 776.577 52.04H763.777V40.52H776.577Z" fill="#FCFCFC"/>
</svg>
