<svg width="24" height="24" viewBox="0 0 24 24" fill="none" xmlns="http://www.w3.org/2000/svg">
<g clip-path="url(#clip0)">
<path d="M23.8728 17.5199C23.8437 17.4572 23.8166 17.4053 23.7915 17.3637C23.3751 16.6137 22.5793 15.6932 21.4047 14.6019L21.3799 14.5769L21.3675 14.5646L21.3549 14.5521H21.3423C20.8093 14.0439 20.4717 13.7022 20.3303 13.5273C20.0716 13.194 20.0137 12.8567 20.1551 12.5149C20.2549 12.2567 20.6301 11.7114 21.2797 10.8782C21.6214 10.4366 21.892 10.0827 22.0918 9.81608C23.5331 7.89996 24.158 6.67553 23.9663 6.14232L23.8919 6.01771C23.8418 5.94269 23.7127 5.87407 23.5047 5.81148C23.2962 5.74902 23.0297 5.7387 22.7047 5.78032L19.106 5.80518C19.0477 5.78452 18.9645 5.78645 18.856 5.81148C18.7477 5.83652 18.6935 5.84908 18.6935 5.84908L18.6309 5.88037L18.5812 5.91797C18.5395 5.94283 18.4937 5.98655 18.4436 6.04905C18.3939 6.11133 18.3523 6.18442 18.319 6.26771C17.9272 7.27571 17.4817 8.21289 16.9818 9.07922C16.6735 9.5958 16.3904 10.0435 16.1319 10.4226C15.8737 10.8015 15.6571 11.0807 15.4823 11.2596C15.3073 11.4388 15.1493 11.5823 15.0074 11.6907C14.8657 11.7992 14.7575 11.845 14.6827 11.8282C14.6076 11.8115 14.5369 11.7948 14.47 11.7782C14.3534 11.7032 14.2597 11.6012 14.189 11.472C14.118 11.3429 14.0702 11.1804 14.0452 10.9847C14.0204 10.7888 14.0057 10.6203 14.0015 10.4786C13.9976 10.3371 13.9994 10.1369 14.0078 9.87871C14.0165 9.62035 14.0204 9.44555 14.0204 9.3539C14.0204 9.03729 14.0265 8.69367 14.0389 8.32296C14.0515 7.95226 14.0617 7.65854 14.0703 7.44215C14.0788 7.22555 14.0827 6.99639 14.0827 6.75479C14.0827 6.5132 14.068 6.32373 14.0389 6.18621C14.0102 6.04887 13.9661 5.91556 13.9081 5.78631C13.8496 5.6572 13.7641 5.55733 13.6519 5.48642C13.5395 5.41561 13.3997 5.35941 13.2333 5.31766C12.7917 5.21774 12.2295 5.16368 11.5462 5.15528C9.99683 5.13865 9.00126 5.2387 8.55974 5.4553C8.3848 5.54682 8.22649 5.67186 8.08495 5.83004C7.93496 6.01338 7.91404 6.11343 8.02232 6.12989C8.52223 6.20477 8.87613 6.38391 9.08442 6.66713L9.15948 6.8172C9.21786 6.92548 9.27616 7.11718 9.3345 7.39204C9.39275 7.6669 9.43035 7.97095 9.44689 8.30401C9.48847 8.91224 9.48847 9.4329 9.44689 9.86602C9.40518 10.2993 9.36579 10.6366 9.3282 10.8782C9.2906 11.1198 9.23441 11.3156 9.15948 11.4655C9.08442 11.6154 9.03448 11.7071 9.00944 11.7403C8.98445 11.7736 8.96362 11.7946 8.94708 11.8028C8.8388 11.8443 8.72618 11.8654 8.60963 11.8654C8.4929 11.8654 8.35136 11.807 8.18478 11.6904C8.01825 11.5737 7.84542 11.4134 7.66628 11.2093C7.48714 11.0051 7.28511 10.7198 7.0601 10.3533C6.83527 9.98677 6.60199 9.55361 6.3604 9.05379L6.16052 8.69131C6.03556 8.45812 5.86487 8.11857 5.64827 7.67298C5.43153 7.22721 5.23996 6.79602 5.07343 6.37949C5.00686 6.20455 4.90685 6.07137 4.77358 5.97972L4.71104 5.94213C4.66946 5.90886 4.60272 5.87354 4.51116 5.8359C4.41946 5.79831 4.32379 5.77135 4.22374 5.75476L0.799886 5.77962C0.450013 5.77962 0.21262 5.85888 0.0876216 6.01719L0.0375959 6.09207C0.0126049 6.13378 0 6.20039 0 6.29209C0 6.38373 0.024991 6.49622 0.0750167 6.6294C0.574836 7.80411 1.11838 8.93702 1.70564 10.0283C2.29291 11.1196 2.80323 11.9987 3.23631 12.6647C3.66947 13.3312 4.11099 13.9603 4.56087 14.5516C5.01076 15.1431 5.30855 15.5222 5.45425 15.6887C5.60012 15.8555 5.7147 15.9803 5.79799 16.0636L6.11045 16.3634C6.31037 16.5634 6.60396 16.8029 6.99135 17.0819C7.37882 17.3611 7.80778 17.6359 8.27845 17.9069C8.7492 18.1774 9.29686 18.3982 9.92172 18.5689C10.5465 18.7398 11.1546 18.8084 11.7461 18.7753H13.1832C13.4746 18.7502 13.6954 18.6585 13.8455 18.5003L13.8952 18.4377C13.9286 18.388 13.9599 18.3107 13.9888 18.2068C14.0181 18.1027 14.0326 17.988 14.0326 17.8632C14.0241 17.505 14.0513 17.1822 14.1136 16.8949C14.1759 16.6076 14.2469 16.391 14.3263 16.2451C14.4057 16.0994 14.4952 15.9764 14.5949 15.8767C14.6947 15.7768 14.7659 15.7162 14.8077 15.6954C14.8491 15.6744 14.8823 15.6602 14.9073 15.6517C15.1072 15.5851 15.3425 15.6496 15.6135 15.8455C15.8843 16.0413 16.1383 16.283 16.3758 16.5703C16.6133 16.8578 16.8985 17.1804 17.2317 17.5386C17.5651 17.8969 17.8566 18.1632 18.1064 18.3384L18.3562 18.4883C18.523 18.5884 18.7396 18.68 19.0063 18.7633C19.2724 18.8466 19.5056 18.8674 19.7058 18.8258L22.9046 18.7759C23.221 18.7759 23.4672 18.7235 23.6419 18.6196C23.8168 18.5154 23.9208 18.4007 23.9543 18.2759C23.9877 18.151 23.9895 18.0093 23.9607 17.8509C23.931 17.6928 23.9018 17.5823 23.8728 17.5199Z" fill="#5B6780"/>
</g>
<defs>
<clipPath id="clip0">
<rect width="24" height="24" fill="white"/>
</clipPath>
</defs>
</svg>
