<svg width="506" height="506" viewBox="0 0 506 506" fill="none" xmlns="http://www.w3.org/2000/svg">
<mask id="path-1-outside-1" maskUnits="userSpaceOnUse" x="0" y="-0.000183105" width="506" height="506" fill="black">
<rect fill="white" y="-0.000183105" width="506" height="506"/>
<path d="M503 253C503 391.071 391.071 503 253 503C114.929 503 3 391.071 3 253C3 114.929 114.929 2.99982 253 2.99982C391.071 2.99982 503 114.929 503 253ZM128 253C128 322.035 183.964 378 253 378C322.036 378 378 322.035 378 253C378 183.964 322.036 128 253 128C183.964 128 128 183.964 128 253Z"/>
</mask>
<path d="M503 253C503 391.071 391.071 503 253 503C114.929 503 3 391.071 3 253C3 114.929 114.929 2.99982 253 2.99982C391.071 2.99982 503 114.929 503 253ZM128 253C128 322.035 183.964 378 253 378C322.036 378 378 322.035 378 253C378 183.964 322.036 128 253 128C183.964 128 128 183.964 128 253Z" stroke="#1C2030" stroke-width="6" mask="url(#path-1-outside-1)"/>
<path d="M52.6191 103.509C84.1886 61.1925 128.344 29.9565 178.758 14.278L215.879 133.639C190.672 141.478 168.594 157.096 152.81 178.254L52.6191 103.509Z" fill="#1C2030"/>
<path d="M3.02058 249.792C3.69795 197.001 21.0706 145.78 52.6485 103.47L152.824 178.235C137.035 199.39 128.349 225.001 128.01 251.396L3.02058 249.792Z" fill="#202435"/>
<path d="M48.6222 396.978C18.2168 353.817 2.25569 302.139 3.02666 249.349L128.013 251.174C127.628 277.569 135.608 303.409 150.811 324.989L48.6222 396.978Z" fill="#1C2030"/>
<path d="M172.218 489.589C122.255 472.529 78.9756 440.09 48.5822 396.921L150.791 324.96C165.988 346.545 187.628 362.764 212.609 371.294L172.218 489.589Z" fill="#202435"/>
<path d="M325.974 492.112C275.478 507.523 221.399 506.552 171.489 489.339L212.245 371.169C237.2 379.776 264.239 380.261 289.487 372.556L325.974 492.112Z" fill="#1C2030"/>
<path d="M451.397 405.113C419.274 447.011 374.711 477.663 324.096 492.677L288.548 372.839C313.856 365.332 336.137 350.005 352.199 329.057L451.397 405.113Z" fill="#202435"/>
<path d="M502.896 260.204C501.375 312.977 483.185 363.914 450.935 405.714L351.968 329.357C368.093 308.457 377.187 282.989 377.948 256.602L502.896 260.204Z" fill="#1C2030"/>
<path d="M460.272 113.22C489.791 156.992 504.694 208.985 502.847 261.748L377.923 257.374C378.847 230.993 371.395 204.996 356.636 183.11L460.272 113.22Z" fill="#202435"/>
<path d="M336.907 17.5012C387.601 35.5632 431.113 69.5009 460.976 114.27L356.988 183.635C342.056 161.25 320.3 144.281 294.954 135.251L336.907 17.5012Z" fill="#1C2030"/>
<path d="M178.694 14.2978C230.467 -1.81852 286.076 -0.665572 337.136 17.5828L295.068 135.291C269.538 126.167 241.733 125.591 215.847 133.649L178.694 14.2978Z" fill="#202435"/>
</svg>
