<svg width="130" height="120" viewBox="0 0 130 120" fill="none" xmlns="http://www.w3.org/2000/svg">
<rect width="130" height="120" rx="5" fill="#202435"/>
<path d="M76.3298 43.125V17.8125C76.3298 16.2586 75.0619 15 73.4965 15H67.8298C66.2644 15 64.9965 16.2586 64.9965 17.8125V43.64C65.8854 43.3271 66.8275 43.125 67.8245 43.125H76.3298ZM98.9965 59.9982C98.9947 53.7861 93.9212 48.75 87.6649 48.75H67.8068C66.252 48.75 64.9911 49.9928 64.9911 51.5361V51.6346C64.9911 56.2523 68.763 60 73.415 60H79.659C81.3731 60 81.9965 60.6293 81.9965 61.4062V64.2539C81.9965 65.008 81.3607 65.6215 80.601 65.6602C72.7173 66.0609 69.2394 70.0037 63.5922 78.4131L62.4748 80.0777C62.3717 80.2314 62.2391 80.3634 62.0846 80.4662C61.9301 80.569 61.7567 80.6406 61.5743 80.6768C61.392 80.7131 61.2042 80.7133 61.0217 80.6774C60.8392 80.6416 60.6657 80.5704 60.5109 80.468L58.154 78.907C57.9991 78.8047 57.8661 78.6731 57.7626 78.5197C57.659 78.3664 57.5869 78.1942 57.5504 78.0132C57.5139 77.8322 57.5137 77.6457 57.5498 77.4646C57.5859 77.2835 57.6576 77.1112 57.7608 76.9576L58.8782 75.293C61.6637 71.1445 64.2261 67.6887 67.256 65.0836C64.1978 64.115 61.6956 61.8984 60.3728 59.0279C59.2058 59.6273 57.9007 59.9982 56.5 59.9982H50.8333C48.6481 59.9982 46.6736 59.1527 45.1667 57.8045C43.6579 59.1545 41.6834 60 39.5 60H33.8333C32.8346 60 31.8907 59.7979 31 59.4814V73.1801C31 79.1479 33.3871 84.8695 37.6389 89.09L42.3316 93.75V105H87.6614V93.757L94.0204 87.443C97.2093 84.2768 99.0005 79.9828 99 75.5057L98.9965 59.9982V59.9982ZM93.328 44.1621V23.4375C93.328 21.8836 92.0601 20.625 90.4947 20.625H84.828C83.2626 20.625 81.9947 21.8836 81.9947 23.4375V43.125H87.6614C89.6589 43.125 91.5466 43.5311 93.328 44.1621ZM33.8333 54.375H39.5C41.0654 54.375 42.3333 53.1164 42.3333 51.5625V29.0625C42.3333 27.5086 41.0654 26.25 39.5 26.25H33.8333C32.2679 26.25 31 27.5086 31 29.0625V51.5625C31 53.1164 32.2679 54.375 33.8333 54.375ZM50.8316 54.375H56.4982C58.0636 54.375 59.3316 53.1164 59.3316 51.5625V23.4375C59.3316 21.8836 58.0636 20.625 56.4982 20.625H50.8316C49.2661 20.625 47.9982 21.8836 47.9982 23.4375V51.5625C47.9982 53.1164 49.2661 54.375 50.8316 54.375V54.375Z" fill="#6C768D" fill-opacity="0.06"/>
</svg>
