<svg width="22" height="22" viewBox="0 0 22 22" fill="none" xmlns="http://www.w3.org/2000/svg">
<path d="M11 0.34375C5.11328 0.34375 0.34375 5.11328 0.34375 11C0.34375 16.8867 5.11328 21.6562 11 21.6562C16.8867 21.6562 21.6562 16.8867 21.6562 11C21.6562 5.11328 16.8867 0.34375 11 0.34375ZM14.9742 13.793L14.1148 14.8672C14.0584 14.9377 13.9887 14.9964 13.9096 15.04C13.8305 15.0835 13.7436 15.1111 13.6539 15.1211C13.5641 15.131 13.4733 15.1232 13.3866 15.0981C13.2999 15.073 13.2189 15.031 13.1484 14.9746L10.2695 12.8382C10.0684 12.6772 9.90601 12.4729 9.79444 12.2406C9.68288 12.0084 9.62497 11.754 9.625 11.4963V4.8125C9.625 4.63016 9.69743 4.4553 9.82636 4.32636C9.9553 4.19743 10.1302 4.125 10.3125 4.125H11.6875C11.8698 4.125 12.0447 4.19743 12.1736 4.32636C12.3026 4.4553 12.375 4.63016 12.375 4.8125V11L14.8672 12.8262C14.9377 12.8826 14.9965 12.9524 15.04 13.0315C15.0836 13.1107 15.1111 13.1976 15.121 13.2874C15.131 13.3772 15.1231 13.468 15.0979 13.5548C15.0727 13.6415 15.0307 13.7225 14.9742 13.793Z" fill="#808FAC"/>
</svg>
