<svg width="24" height="24" viewBox="0 0 24 24" fill="none" xmlns="http://www.w3.org/2000/svg">
<path d="M23.4375 10.5H22.0142C21.3621 6.10898 17.891 2.63794 13.5 1.98581V0.5625C13.5 0.251859 13.2481 0 12.9375 0H11.0625C10.7519 0 10.5 0.251859 10.5 0.5625V1.98581C6.10898 2.63794 2.63794 6.10898 1.98581 10.5H0.5625C0.251859 10.5 0 10.7519 0 11.0625V12.9375C0 13.2481 0.251859 13.5 0.5625 13.5H1.98581C2.63794 17.891 6.10898 21.3621 10.5 22.0142V23.4375C10.5 23.7481 10.7519 24 11.0625 24H12.9375C13.2481 24 13.5 23.7481 13.5 23.4375V22.0142C17.891 21.3621 21.3621 17.891 22.0142 13.5H23.4375C23.7481 13.5 24 13.2481 24 12.9375V11.0625C24 10.7519 23.7481 10.5 23.4375 10.5ZM13.5 18.9672V17.0625C13.5 16.7519 13.2481 16.5 12.9375 16.5H11.0625C10.7519 16.5 10.5 16.7519 10.5 17.0625V18.9672C7.77309 18.3859 5.61483 16.2301 5.03278 13.5H6.9375C7.24814 13.5 7.5 13.2481 7.5 12.9375V11.0625C7.5 10.7519 7.24814 10.5 6.9375 10.5H5.03278C5.61412 7.77309 7.76986 5.61483 10.5 5.03278V6.9375C10.5 7.24814 10.7519 7.5 11.0625 7.5H12.9375C13.2481 7.5 13.5 7.24814 13.5 6.9375V5.03278C16.2269 5.61412 18.3852 7.76986 18.9672 10.5H17.0625C16.7519 10.5 16.5 10.7519 16.5 11.0625V12.9375C16.5 13.2481 16.7519 13.5 17.0625 13.5H18.9672C18.3859 16.2269 16.2301 18.3852 13.5 18.9672ZM13.5 12C13.5 12.8284 12.8284 13.5 12 13.5C11.1716 13.5 10.5 12.8284 10.5 12C10.5 11.1716 11.1716 10.5 12 10.5C12.8284 10.5 13.5 11.1716 13.5 12Z" fill="#808FAC"/>
</svg>
