<svg width="21" height="24" viewBox="0 0 21 24" fill="none" xmlns="http://www.w3.org/2000/svg">
<g clip-path="url(#clip0)">
<path d="M20.5847 21.2372L13.9294 18L20.5852 14.7628C20.9555 14.5777 21.106 14.1272 20.9204 13.7569L20.2496 12.4148C20.0644 12.0445 19.614 11.8941 19.2432 12.0792L10.4996 16.3317L1.75602 12.0792C1.38571 11.8941 0.935244 12.0441 0.749619 12.4148L0.078839 13.7569C-0.106317 14.1272 0.0436828 14.5777 0.413995 14.7628L7.06977 18L0.414464 21.2372C0.0441516 21.4223 -0.106317 21.8728 0.0793077 22.2436L0.750088 23.5856C0.935244 23.9559 1.38571 24.1064 1.75649 23.9208L10.4996 19.6683L19.2432 23.9208C19.6135 24.1059 20.064 23.9559 20.2496 23.5856L20.9204 22.2436C21.1055 21.8728 20.9551 21.4223 20.5847 21.2372ZM7.03086 11.1225L6.77399 12.3352C6.64883 12.9267 7.02805 13.5 7.54508 13.5H13.4551C13.9721 13.5 14.3513 12.9267 14.2262 12.3352L13.9684 11.1225C15.9268 10.072 17.2496 8.18109 17.2496 6C17.2496 2.68641 14.2276 0 10.4996 0C6.77164 0 3.74962 2.68641 3.74962 6C3.74962 8.18109 5.07243 10.072 7.03086 11.1225ZM13.1246 5.25C13.9519 5.25 14.6246 5.92266 14.6246 6.75C14.6246 7.57734 13.9519 8.25 13.1246 8.25C12.2973 8.25 11.6246 7.57734 11.6246 6.75C11.6246 5.92266 12.2973 5.25 13.1246 5.25ZM7.87461 5.25C8.70195 5.25 9.37461 5.92266 9.37461 6.75C9.37461 7.57734 8.70195 8.25 7.87461 8.25C7.04727 8.25 6.37461 7.57734 6.37461 6.75C6.37461 5.92266 7.04727 5.25 7.87461 5.25Z" fill="#808FAC"/>
</g>
<defs>
<clipPath id="clip0">
<rect width="21" height="24" fill="white"/>
</clipPath>
</defs>
</svg>
