<svg width="17" height="22" viewBox="0 0 17 22" fill="none" xmlns="http://www.w3.org/2000/svg">
<g clip-path="url(#clip0)">
<path d="M11.1737 6.875V0.6875C11.1737 0.307656 10.8612 0 10.4753 0H9.07849C8.69262 0 8.38008 0.307656 8.38008 0.6875V7.0009C8.59921 6.92441 8.83143 6.875 9.07718 6.875H11.1737ZM16.761 10.9996C16.7606 9.48106 15.51 8.25 13.9678 8.25H9.07282C8.68956 8.25 8.37877 8.55379 8.37877 8.93106V8.95512C8.37877 10.0839 9.30853 11 10.4552 11H11.9944C12.4169 11 12.5706 11.1538 12.5706 11.3438V12.0398C12.5706 12.2242 12.4138 12.3741 12.2266 12.3836C10.2833 12.4816 9.42595 13.4454 8.03393 15.501L7.75849 15.9079C7.73308 15.9455 7.7004 15.9777 7.66231 16.0029C7.62423 16.028 7.58149 16.0455 7.53653 16.0543C7.49157 16.0632 7.44528 16.0632 7.40031 16.0545C7.35533 16.0457 7.31255 16.0283 7.2744 16.0033L6.69341 15.6217C6.65525 15.5967 6.62247 15.5645 6.59694 15.527C6.57141 15.4896 6.55364 15.4475 6.54464 15.4032C6.53564 15.359 6.53559 15.3134 6.54449 15.2691C6.55339 15.2249 6.57107 15.1827 6.59651 15.1452L6.87194 14.7383C7.55857 13.7242 8.1902 12.8795 8.93706 12.2427C8.18321 12.0059 7.56643 11.4641 7.24036 10.7624C6.9527 10.9089 6.63099 10.9996 6.28571 10.9996H4.88889C4.35024 10.9996 3.86353 10.7929 3.49206 10.4633C3.12016 10.7933 2.63345 11 2.09524 11H0.698413C0.452222 11 0.219563 10.9506 0 10.8732V14.2218C0 15.6806 0.588413 17.0792 1.63647 18.1109L2.79321 19.25V22H13.9669V19.2517L15.5344 17.7083C16.3205 16.9343 16.762 15.8847 16.7619 14.7903L16.761 10.9996ZM15.3638 7.12852V2.0625C15.3638 1.68266 15.0512 1.375 14.6654 1.375H13.2685C12.8827 1.375 12.5701 1.68266 12.5701 2.0625V6.875H13.9669C14.4593 6.875 14.9246 6.97426 15.3638 7.12852ZM0.698413 9.625H2.09524C2.48111 9.625 2.79365 9.31734 2.79365 8.9375V3.4375C2.79365 3.05766 2.48111 2.75 2.09524 2.75H0.698413C0.31254 2.75 0 3.05766 0 3.4375V8.9375C0 9.31734 0.31254 9.625 0.698413 9.625ZM4.88845 9.625H6.28528C6.67115 9.625 6.98369 9.31734 6.98369 8.9375V2.0625C6.98369 1.68266 6.67115 1.375 6.28528 1.375H4.88845C4.50258 1.375 4.19004 1.68266 4.19004 2.0625V8.9375C4.19004 9.31734 4.50258 9.625 4.88845 9.625Z" fill="#808FAC"/>
</g>
<defs>
<clipPath id="clip0">
<rect width="16.7619" height="22" fill="white"/>
</clipPath>
</defs>
</svg>
