<svg width="24" height="24" viewBox="0 0 24 24" fill="none" xmlns="http://www.w3.org/2000/svg">
<path d="M12 20.4844C12.3883 20.4844 12.7031 20.1696 12.7031 19.7812C12.7031 19.3929 12.3883 19.0781 12 19.0781C11.6117 19.0781 11.2969 19.3929 11.2969 19.7812C11.2969 20.1696 11.6117 20.4844 12 20.4844Z" fill="#808FAC"/>
<path d="M12 15.5625C9.67364 15.5625 7.78125 17.4549 7.78125 19.7812C7.78125 22.1076 9.67364 24 12 24C14.3264 24 16.2188 22.1076 16.2188 19.7812C16.2188 17.4549 14.3264 15.5625 12 15.5625ZM12 21.8906C10.8368 21.8906 9.89062 20.9444 9.89062 19.7812C9.89062 18.6181 10.8368 17.6719 12 17.6719C13.1632 17.6719 14.1094 18.6181 14.1094 19.7812C14.1094 20.9444 13.1632 21.8906 12 21.8906Z" fill="#808FAC"/>
<path d="M18.6174 21.5892L21.8439 16.9818L19.9429 15.6505C19.2798 16.8465 18.4688 17.9305 17.5272 18.8128C17.5825 19.1288 17.6252 19.4496 17.6252 19.7812C17.6252 20.1372 17.5835 20.4829 17.52 20.8206L18.6174 21.5892Z" fill="#808FAC"/>
<path d="M6.48005 20.8205C6.41653 20.4828 6.375 20.1372 6.375 19.7813C6.375 19.4497 6.41766 19.1289 6.47292 18.8129C5.5312 17.9305 4.72008 16.8462 4.05689 15.65L2.15625 16.9805L5.38209 21.5892L6.48005 20.8205Z" fill="#808FAC"/>
<path d="M16.2188 7.78125C15.3474 7.78125 14.1094 8.50842 14.1094 9.1875C14.1094 9.86658 15.3474 10.5938 16.2188 10.5938C16.5483 10.5938 16.9219 10.5938 16.9219 9.1875C16.9219 7.78125 16.5483 7.78125 16.2188 7.78125Z" fill="#808FAC"/>
<path d="M20.4375 8.48438C20.4375 3.35855 17.1258 0 12 0C6.87417 0 3.5625 3.35855 3.5625 8.48438C3.5625 11.6024 4.89244 15.0613 6.97608 17.3025C7.89619 15.4466 9.792 14.1562 12 14.1562C14.208 14.1562 16.1038 15.4466 17.0239 17.3025C19.1076 15.0613 20.4375 11.6024 20.4375 8.48438ZM7.78125 12C6.38184 12 5.67188 11.0538 5.67188 9.1875C5.67188 7.32122 6.38184 6.375 7.78125 6.375C9.18066 6.375 11.2969 7.497 11.2969 9.1875C11.2969 10.878 9.18066 12 7.78125 12ZM12.7031 9.1875C12.7031 7.497 14.8193 6.375 16.2188 6.375C17.6182 6.375 18.3281 7.32122 18.3281 9.1875C18.3281 11.0538 17.6182 12 16.2188 12C14.8193 12 12.7031 10.878 12.7031 9.1875Z" fill="#808FAC"/>
<path d="M7.78125 7.78125C7.45167 7.78125 7.07812 7.78125 7.07812 9.1875C7.07812 10.5938 7.45167 10.5938 7.78125 10.5938C8.65261 10.5938 9.89062 9.86658 9.89062 9.1875C9.89062 8.50842 8.65261 7.78125 7.78125 7.78125Z" fill="#808FAC"/>
</svg>
