<svg width="22" height="22" viewBox="0 0 22 22" fill="none" xmlns="http://www.w3.org/2000/svg">
<path d="M11 0C4.92422 0 0 4.30977 0 9.625C0 12.6371 1.58555 15.3227 4.06055 17.0887C4.47305 17.3852 4.71367 17.8664 4.64062 18.3734L4.23672 21.218C4.17656 21.6305 4.49453 22 4.91133 22H8.25V19.5938C8.25 19.4047 8.40469 19.25 8.59375 19.25H9.28125C9.47031 19.25 9.625 19.4047 9.625 19.5938V22H12.375V19.5938C12.375 19.4047 12.5297 19.25 12.7188 19.25H13.4062C13.5953 19.25 13.75 19.4047 13.75 19.5938V22H17.0887C17.5055 22 17.8234 21.6305 17.7633 21.218L17.3594 18.3734C17.2863 17.8707 17.5227 17.3852 17.9395 17.0887C20.4145 15.3227 22 12.6371 22 9.625C22 4.30977 17.0758 0 11 0ZM6.875 13.75C5.3582 13.75 4.125 12.5168 4.125 11C4.125 9.4832 5.3582 8.25 6.875 8.25C8.3918 8.25 9.625 9.4832 9.625 11C9.625 12.5168 8.3918 13.75 6.875 13.75ZM15.125 13.75C13.6082 13.75 12.375 12.5168 12.375 11C12.375 9.4832 13.6082 8.25 15.125 8.25C16.6418 8.25 17.875 9.4832 17.875 11C17.875 12.5168 16.6418 13.75 15.125 13.75Z" fill="#808FAC"/>
</svg>
