<svg width="24" height="24" viewBox="0 0 24 24" fill="none" xmlns="http://www.w3.org/2000/svg">
<g clip-path="url(#clip0)">
<path d="M21.6939 2.32364C20.2046 0.83591 18.1857 0.000244141 16.0806 0.000244141C13.9756 0.000244141 11.9566 0.83591 10.4673 2.32364C8.80421 3.98442 7.50625 6.00004 7.50625 9.00004V13.0233L5.60218 14.926C5.1475 15.3802 4.47718 15.4449 3.87812 15.2072C3.27322 14.9657 2.60349 14.9404 1.98208 15.1355C1.36067 15.3307 0.825672 15.7344 0.467483 16.2784C0.109294 16.8224 -0.0501289 17.4734 0.0161479 18.1213C0.0824246 18.7693 0.370338 19.3745 0.831245 19.8347C1.54703 20.5496 2.54265 20.7516 3.46187 20.5411C3.25093 21.4599 3.45343 22.455 4.16968 23.1708C4.62975 23.633 5.23536 23.922 5.88402 23.989C6.53268 24.0559 7.18456 23.8967 7.72934 23.5383C8.27413 23.1799 8.67836 22.6443 8.87363 22.0221C9.0689 21.3999 9.04322 20.7294 8.80093 20.1239C8.56234 19.5272 8.62656 18.8583 9.08218 18.4013L10.9858 16.5H15.0119C15.9983 16.5074 16.979 16.3489 17.913 16.0313C16.0548 13.9739 16.0459 10.8643 17.9622 8.94989C19.5737 7.33926 22.0291 7.1002 23.9969 8.16239C24.0578 6.05489 23.3027 3.93051 21.6939 2.32364Z" fill="#808FAC"/>
</g>
<defs>
<clipPath id="clip0">
<rect width="24" height="24" fill="white"/>
</clipPath>
</defs>
</svg>
